<svg id="Layer_1" data-name="Layer 1" xmlns="http://www.w3.org/2000/svg" viewBox="0 0 24 24"><defs><style>.cls-1{fill:#3c5faf;}</style></defs><title>icon-notifications copy</title><path class="cls-1" d="M12,20.8647a1.2553,1.2553,0,0,1-1.2539-1.2539h-1.68a2.9336,2.9336,0,1,0,5.8671,0h-1.68A1.2553,1.2553,0,0,1,12,20.8647Z"/><path class="cls-1" d="M17.5632,8.5444A5.5787,5.5787,0,0,0,12.84,3.8354v-2.38H11.16v2.38A5.5731,5.5731,0,0,0,6.4387,8.5337l-1.622,9.8369H19.1833ZM6.7966,16.6909,8.0984,8.7964a3.9461,3.9461,0,0,1,7.8052.0107l1.3,7.8838Z"/></svg>