<svg id="Layer_1" data-name="Layer 1" xmlns="http://www.w3.org/2000/svg" viewBox="0 0 24 24"><defs><style>.cls-1{fill:#3c5faf;}</style></defs><title>icon-log-out copy</title><path class="cls-1" d="M11.6953,19.2606a7.2608,7.2608,0,0,1,0-14.5215,7.1931,7.1931,0,0,1,3.2367.76l-.7886,1.5821a5.4383,5.4383,0,0,0-2.4481-.5742,5.4932,5.4932,0,1,0,0,10.9863,5.4444,5.4444,0,0,0,2.5231-.6113l.8125,1.5683A7.2792,7.2792,0,0,1,11.6953,19.2606Z"/><polygon class="cls-1" points="19.306 12.015 15.826 8.536 14.577 9.786 15.907 11.116 9.444 11.116 9.444 12.884 15.907 12.884 14.577 14.214 15.826 15.464 18.041 13.249 19.306 12.015"/></svg>