<svg id="Layer_1" data-name="Layer 1" xmlns="http://www.w3.org/2000/svg" viewBox="0 0 24 24"><defs><style>.cls-1{fill:#3c5faf;}</style></defs><title>icon-company copy</title><path class="cls-1" d="M16.1719,9.9668V5.0547a3.5217,3.5217,0,0,0-3.5176-3.5176H5.2852A3.5217,3.5217,0,0,0,1.7676,5.0547V22.4629H5.8267v-1.68H3.4473V5.0547A1.84,1.84,0,0,1,5.2852,3.2168h7.3691a1.84,1.84,0,0,1,1.8379,1.8379V20.7832H7.5068v1.68H22.2324V9.9668Zm4.38,10.8164H16.1816l.1011-9.1367h4.27Z"/><rect class="cls-1" x="5.7964" y="12.3604" width="2.8354" height="1.6797"/><rect class="cls-1" x="9.3081" y="12.3604" width="2.835" height="1.6797"/><rect class="cls-1" x="5.7964" y="9.9609" width="2.8354" height="1.6797"/><rect class="cls-1" x="9.3081" y="9.9609" width="2.835" height="1.6797"/><rect class="cls-1" x="5.7964" y="7.5605" width="2.8354" height="1.6797"/><rect class="cls-1" x="9.3081" y="7.5605" width="2.835" height="1.6797"/><rect class="cls-1" x="5.7964" y="5.1611" width="2.8354" height="1.6797"/><rect class="cls-1" x="9.3081" y="5.1611" width="2.835" height="1.6797"/><rect class="cls-1" x="5.7964" y="14.7598" width="2.8354" height="1.6797"/><rect class="cls-1" x="9.3081" y="14.7598" width="2.835" height="1.6797"/><rect class="cls-1" x="5.7964" y="17.1592" width="2.8354" height="1.6797"/><rect class="cls-1" x="9.3081" y="17.1592" width="2.835" height="1.6797"/></svg>