<?xml version="1.0" standalone="no"?>
<!DOCTYPE svg PUBLIC "-//W3C//DTD SVG 20010904//EN"
 "http://www.w3.org/TR/2001/REC-SVG-20010904/DTD/svg10.dtd">
<svg version="1.0" xmlns="http://www.w3.org/2000/svg"
 width="50.000000pt" height="50.000000pt" viewBox="0 0 50.000000 50.000000"
 preserveAspectRatio="xMidYMid meet">
<metadata>
Created by potrace 1.16, written by Peter Selinger 2001-2019
</metadata>
<g transform="translate(0.000000,50.000000) scale(0.025000,-0.025000)"
fill="#000000" stroke="none">
<path d="M823 1162 c27 -29 20 -61 -28 -142 -38 -62 -45 -82 -45 -126 0 -45 4
-57 31 -83 19 -20 40 -31 57 -30 27 0 27 0 4 11 -39 19 -38 52 2 117 40 65 45
95 19 110 -14 8 1 10 57 11 41 0 70 -4 64 -8 -6 -4 -14 -14 -17 -22 -4 -12 -6
-11 -6 3 -1 13 -10 17 -42 17 -32 0 -39 -3 -32 -12 13 -17 25 -50 15 -44 -4 2
-8 -8 -10 -22 -8 -77 -8 -77 22 -80 25 -3 28 -7 24 -33 -5 -34 20 -42 29 -9 5
19 6 19 22 -2 l18 -21 20 34 c61 101 102 189 88 189 -8 0 -31 -35 -53 -81 -37
-78 -40 -80 -47 -53 -4 16 -7 48 -6 70 4 80 -54 168 -134 205 -54 25 -74 25
-52 1z"/>
</g>
</svg>
